<?xml version="1.0" encoding="iso-8859-1"?>
<!-- Generator: Adobe Illustrator 19.0.0, SVG Export Plug-In . SVG Version: 6.00 Build 0)  -->
<svg version="1.1" id="Capa_1" xmlns="http://www.w3.org/2000/svg" xmlns:xlink="http://www.w3.org/1999/xlink" x="0px" y="0px"
	 viewBox="0 0 512 512" style="enable-background:new 0 0 512 512;" xml:space="preserve">
<rect x="284.227" y="170.669" style="fill:#FEB756;" width="45.946" height="34.13"/>
<rect x="303.666" y="170.669" style="fill:#FA8043;" width="26.511" height="34.13"/>
<rect x="284.227" y="290.139" style="fill:#FEB756;" width="45.946" height="34.13"/>
<g>
	<rect x="303.666" y="290.139" style="fill:#FA8043;" width="26.511" height="34.13"/>
	<rect x="34.13" y="320.457" style="fill:#FA8043;" width="256" height="41.752"/>
</g>
<rect x="17.069" y="320.457" style="fill:#57555C;" width="25.6" height="41.752"/>
<path style="fill:#4DBBEB;" d="M324.267,371.964V170.671c0-9.426,7.642-17.067,17.068-17.067h114.803c2.76,0,5.185,1.83,5.943,4.483
	l32.616,114.15c0.158,0.552,0.238,1.124,0.238,1.698v98.029H324.267z"/>
<path style="fill:#38A1D9;" d="M494.697,272.238l-32.616-114.15c-0.758-2.654-3.183-4.483-5.943-4.483h-20.604
	c2.76,0,5.185,1.83,5.943,4.483l32.616,114.15c0.158,0.552,0.238,1.124,0.238,1.698v98.029h20.604v-98.029
	C494.935,273.361,494.855,272.79,494.697,272.238z"/>
<path style="fill:#85828C;" d="M68.267,392.536H6.181c-3.414,0-6.181-2.767-6.181-6.181v-21.77c0-3.414,2.767-6.181,6.181-6.181
	h62.086h375.466h62.086c3.414,0,6.181,2.767,6.181,6.181v21.77c0,3.414-2.767,6.181-6.181,6.181h-62.086H68.267z"/>
<path style="fill:#FEB756;" d="M494.934,307.202h-27.952c-3.414,0-6.181,2.767-6.181,6.181v13.24c0,3.414,2.767,6.181,6.181,6.181
	h27.953L494.934,307.202z"/>
<path style="fill:#C0E3F0;" d="M454.619,273.07h-33.925c-1.639,0-3.211-0.651-4.37-1.81l-21.98-21.978
	c-1.159-1.159-1.81-2.731-1.81-4.371v-59.525c0-3.414,2.767-6.181,6.181-6.181h40.299c2.788,0,5.23,1.866,5.964,4.554l15.606,57.222
	c0.144,0.53,0.217,1.078,0.217,1.627v24.28C460.8,270.303,458.033,273.07,454.619,273.07z"/>
<g>
	<path style="fill:#38A1D9;" d="M349.868,195.463h17.066c4.267,0,7.726-3.459,7.726-7.726s-3.459-7.726-7.726-7.726h-17.066
		c-4.268,0-7.726,3.459-7.726,7.726S345.6,195.463,349.868,195.463z"/>
	<path style="fill:#38A1D9;" d="M366.934,205.612h-17.066c-4.268,0-7.726,3.459-7.726,7.726s3.458,7.726,7.726,7.726h17.066
		c4.267,0,7.726-3.459,7.726-7.726S371.202,205.612,366.934,205.612z"/>
	<path style="fill:#38A1D9;" d="M366.934,231.213h-17.066c-4.268,0-7.726,3.459-7.726,7.726s3.458,7.726,7.726,7.726h17.066
		c4.267,0,7.726-3.459,7.726-7.726S371.202,231.213,366.934,231.213z"/>
</g>
<path style="fill:#57555C;" d="M392.534,282.41h-25.599c-4.267,0-7.726,3.459-7.726,7.726c0,4.267,3.459,7.726,7.726,7.726h25.599
	c4.268,0,7.726-3.459,7.726-7.726C400.26,285.869,396.801,282.41,392.534,282.41z"/>
<path style="fill:#A3CFE3;" d="M460.583,240.983l-15.606-57.222c-0.733-2.689-3.176-4.554-5.964-4.554h-20.604
	c2.788,0,5.23,1.866,5.964,4.554l15.606,57.222c0.144,0.53,0.217,1.077,0.217,1.627v24.28c0,3.414-2.767,6.181-6.181,6.181h20.604
	c3.414,0,6.181-2.767,6.181-6.181v-24.28C460.8,242.06,460.727,241.513,460.583,240.983z"/>
<rect x="474.337" y="307.199" style="fill:#FA8043;" width="20.604" height="25.602"/>
<circle style="fill:#57555C;" cx="119.47" cy="375.469" r="51.199"/>
<circle style="fill:#85828C;" cx="119.47" cy="375.469" r="25.599"/>
<path style="fill:#57555C;" d="M119.468,363.469c-4.268,0-7.726,3.459-7.726,7.726v8.534c0,4.267,3.458,7.726,7.726,7.726
	c4.268,0,7.726-3.459,7.726-7.726v-8.534C127.194,366.929,123.736,363.469,119.468,363.469z"/>
<path style="fill:#4B494F;" d="M119.467,324.268c-3.528,0-6.974,0.357-10.302,1.037c23.339,4.768,40.897,25.415,40.897,50.163
	c0,24.748-17.558,45.394-40.897,50.162c3.327,0.68,6.773,1.037,10.302,1.037c28.276,0,51.199-22.923,51.199-51.199
	C170.667,347.191,147.743,324.268,119.467,324.268z"/>
<circle style="fill:#57555C;" cx="392.53" cy="375.469" r="51.199"/>
<circle style="fill:#85828C;" cx="392.53" cy="375.469" r="25.599"/>
<path style="fill:#57555C;" d="M392.534,363.469c-4.268,0-7.726,3.459-7.726,7.726v8.534c0,4.267,3.458,7.726,7.726,7.726
	c4.268,0,7.726-3.459,7.726-7.726v-8.534C400.26,366.929,396.801,363.469,392.534,363.469z"/>
<path style="fill:#4B494F;" d="M392.533,324.268c-3.528,0-6.974,0.357-10.302,1.037c23.339,4.768,40.897,25.415,40.897,50.163
	c0,24.748-17.558,45.394-40.897,50.162c3.328,0.68,6.773,1.037,10.302,1.037c28.276,0,51.199-22.923,51.199-51.199
	C443.732,347.191,420.809,324.268,392.533,324.268z"/>
<path style="fill:#57555C;" d="M505.819,358.403h-20.604c3.414,0,6.181,2.767,6.181,6.181v21.77c0,3.414-2.767,6.181-6.181,6.181
	h20.604c3.414,0,6.181-2.767,6.181-6.181v-21.77C512,361.171,509.233,358.403,505.819,358.403z"/>
<path style="fill:#85828C;" d="M283.953,324.266H6.181c-3.414,0-6.181-2.767-6.181-6.181V91.514c0-3.414,2.767-6.181,6.181-6.181
	h277.772c3.414,0,6.181,2.767,6.181,6.181v226.571C290.134,321.499,287.367,324.266,283.953,324.266z"/>
<path style="fill:#57555C;" d="M283.953,85.333h-20.604c3.414,0,6.181,2.767,6.181,6.181v226.571c0,3.414-2.767,6.181-6.181,6.181
	h20.604c3.414,0,6.181-2.767,6.181-6.181V91.514C290.134,88.1,287.367,85.333,283.953,85.333z"/>
<path style="fill:#4DBBEB;" d="M25.6,85.332v45.02c0,3.414,2.767,6.181,6.181,6.181h226.572c3.414,0,6.181-2.767,6.181-6.181v-45.02
	H25.6z"/>
<g>
	<path style="fill:#57555C;" d="M85.333,171.473c-4.267,0-7.726,3.459-7.726,7.726v51.2c0,4.267,3.459,7.726,7.726,7.726
		c4.267,0,7.726-3.459,7.726-7.726v-51.2C93.059,174.932,89.6,171.473,85.333,171.473z"/>
	<path style="fill:#57555C;" d="M204.8,171.473c-4.267,0-7.726,3.459-7.726,7.726v51.2c0,4.267,3.459,7.726,7.726,7.726
		c4.267,0,7.726-3.459,7.726-7.726v-51.2C212.526,174.932,209.067,171.473,204.8,171.473z"/>
	<path style="fill:#57555C;" d="M145.068,171.473c-4.267,0-7.726,3.459-7.726,7.726v51.2c0,4.267,3.459,7.726,7.726,7.726
		c4.267,0,7.726-3.459,7.726-7.726v-51.2C152.794,174.932,149.335,171.473,145.068,171.473z"/>
</g>
<path style="fill:#38A1D9;" d="M243.93,85.332v45.02c0,3.414-2.767,6.181-6.181,6.181h20.604c3.414,0,6.181-2.767,6.181-6.181
	v-45.02H243.93z"/>
<g>
</g>
<g>
</g>
<g>
</g>
<g>
</g>
<g>
</g>
<g>
</g>
<g>
</g>
<g>
</g>
<g>
</g>
<g>
</g>
<g>
</g>
<g>
</g>
<g>
</g>
<g>
</g>
<g>
</g>
</svg>
